<svg xmlns="http://www.w3.org/2000/svg" version="1.1" xmlns:xlink="http://www.w3.org/1999/xlink" xmlns:svgjs="http://svgjs.dev/svgjs" width="1500" height="1500" viewBox="0 0 1500 1500"><rect width="1500" height="1500" fill="#dedede"></rect><g transform="matrix(0.6666666666666666,0,0,0.6666666666666666,249.39393939393938,438.5856950067477)"><svg viewBox="0 0 396 247" data-background-color="#dedede" preserveAspectRatio="xMidYMid meet" height="935" width="1500" xmlns="http://www.w3.org/2000/svg" xmlns:xlink="http://www.w3.org/1999/xlink"><g id="tight-bounds" transform="matrix(1,0,0,1,0.2400000000000091,-0.09999999999999432)"><svg viewBox="0 0 395.52 247.2" height="247.2" width="395.52"><g><svg></svg></g><g><svg viewBox="0 0 395.52 247.2" height="247.2" width="395.52"><g transform="matrix(1,0,0,1,160.41236786961582,47.215199999999996)"><svg viewBox="0 0 74.69526426076833 152.7696" height="152.7696" width="74.69526426076833"><g><svg viewBox="0 0 74.69526426076833 152.7696" height="152.7696" width="74.69526426076833"><g><svg viewBox="0 0 74.69526426076833 152.7696" height="152.7696" width="74.69526426076833"><g><svg viewBox="0 0 74.69526426076833 152.7696" height="152.7696" width="74.69526426076833"><g id="textblocktransform"><svg viewBox="0 0 74.69526426076833 152.7696" height="152.7696" width="74.69526426076833" id="textblock"><g><svg viewBox="0 0 74.69526426076833 152.7696" height="152.7696" width="74.69526426076833"><g transform="matrix(1,0,0,1,0,0)"><svg width="74.69526426076833" viewBox="1.9 -42.95 21 42.95" height="152.7696" data-palette-color="#374151"><path d="M1.9 0L1.9-42.95 15.1-42.95Q18.25-42.95 19.98-41.53 21.7-40.1 22.3-37.52 22.9-34.95 22.9-30.95L22.9-30.95Q22.9-27.3 21.95-25.25 21-23.2 18.65-22.4L18.65-22.4Q20.6-22 21.48-20.45 22.35-18.9 22.35-16.25L22.35-16.25 22.25 0 13.85 0 13.85-16.8Q13.85-18.6 13.15-19.1 12.45-19.6 10.6-19.6L10.6-19.6 10.6 0 1.9 0ZM10.65-27.05L12.7-27.05Q14.5-27.05 14.5-30.95L14.5-30.95Q14.5-32.65 14.35-33.5 14.2-34.35 13.8-34.68 13.4-35 12.65-35L12.65-35 10.65-35 10.65-27.05Z" opacity="1" transform="matrix(1,0,0,1,0,0)" fill="#374151" class="wordmark-text-0" data-fill-palette-color="primary" id="text-0"></path></svg></g></svg></g></svg></g></svg></g></svg></g></svg></g></svg></g><path d="M52.806 41.215L52.806 0 300.006 0 300.006 247.2 52.806 247.2 52.806 205.985 66.583 205.985 66.583 233.423 286.229 233.423 286.229 13.777 66.583 13.777 66.583 41.215Z" fill="#374151" stroke="transparent" data-fill-palette-color="primary"></path></svg></g><defs></defs></svg><rect width="395.52" height="247.2" fill="none" stroke="none" visibility="hidden"></rect></g></svg></g></svg>